# xmcd CD database file
#
# Track frame offsets:
#	150
#	13447
#	25134
#	38209
#	45533
#	60916
#	69797
#	79986
#
# Disc length: 1229 seconds
#
# Revision: 1
# Processed by: cddbd v1.5.2PL0 Copyright (c) Steve Scherf et al.
# Submitted via: CDex 1.51
#
DISCID=5d04cb08
DTITLE=The Reverend Peyton's Big Damn Band - The Gospel Album
DYEAR=2007
DGENRE=Blues
TTITLE0=Blow That Horn
TTITLE1=Down By The Riverside
TTITLE2=Glory Glory Hallelujah
TTITLE3=Tell All The World John
TTITLE4=I Shall Not Be Moved
TTITLE5=Rock Island Line
TTITLE6=Let Your Light Shine
TTITLE7=Amazing Grace
EXTD=YEAR: 2007
EXTT0=
EXTT1=
EXTT2=
EXTT3=
EXTT4=
EXTT5=
EXTT6=
EXTT7=
PLAYORDER=
